# xmcd
#
# Track frame offsets: 
#        150
#        19835
#        34745
#        46934
#        64451
#        87751
#        104687
#        118242
#        138726
#        154602
#        170009
#        189968
#        205379
#
# Disc length: 3032 seconds
#
# Revision: 0
# Processed by: cddbd v1.5.2PL0 Copyright (c) Steve Scherf et al.
# Submitted via: ExactAudioCopy v1.0b4
#
DISCID=bb0bd60d
DTITLE=Barbara Blue - Memphis Blue ~ Sweet, Strong and Tight
DYEAR=2015
DGENRE=Blues
TTITLE0=Hands Off
TTITLE1=No Time To Cry
TTITLE2=Rudy's Blues
TTITLE3=VooDoo Woman
TTITLE4=Me and Jesus
TTITLE5=Rollin' Up On Me
TTITLE6=Love Is After Me
TTITLE7=Coat and Hat
TTITLE8=Sweet, Strong and Tight
TTITLE9=I'm Gonna Tear Your Playhouse Down
TTITLE10=SuperBlues
TTITLE11=Memphis Stomp
TTITLE12=800 Mile Blues
EXTD=
EXTT0=
EXTT1=
EXTT2=
EXTT3=
EXTT4=
EXTT5=
EXTT6=
EXTT7=
EXTT8=
EXTT9=
EXTT10=
EXTT11=
EXTT12=
PLAYORDER=
